name Walk2.mot
datacolumns 19
datarows 22
range 3.89200000 3.91300000
endheader

                time	   L_ground_force_vx	   L_ground_force_vy	   L_ground_force_vz	   L_ground_force_px	   L_ground_force_py	   L_ground_force_pz	   R_ground_force_vx	   R_ground_force_vy	   R_ground_force_vz	   R_ground_force_px	   R_ground_force_py	   R_ground_force_pz	   L_ground_torque_x	   L_ground_torque_y	   L_ground_torque_z	   R_ground_torque_x	   R_ground_torque_y	   R_ground_torque_z	
          3.89200000	         18.28604292	        131.38026953	          3.76033019	          0.30885314	          0.00000000	          0.12643095	          0.00000000	          0.00000000	          0.00000000	          0.00000000	          0.00000000	          0.00000000	          0.00000000	         -7.06537067	          0.00000000	          0.00000000	          0.00000000	          0.00000000	
          3.89300000	         16.34903988	        123.76852340	          3.60224266	          0.31126490	          0.00000000	          0.12569965	          0.00000000	          0.00000000	          0.00000000	          0.00000000	          0.00000000	          0.00000000	          0.00000000	         -6.73954816	          0.00000000	          0.00000000	          0.00000000	          0.00000000	
          3.89400000	         14.40868305	        116.57789802	          3.44464000	          0.31388406	          0.00000000	          0.12503319	          0.00000000	          0.00000000	          0.00000000	          0.00000000	          0.00000000	          0.00000000	          0.00000000	         -6.41681681	          0.00000000	          0.00000000	          0.00000000	          0.00000000	
          3.89500000	         12.45147059	        109.79964187	          3.29707520	          0.31644184	          0.00000000	          0.12437267	          0.00000000	          0.00000000	          0.00000000	          0.00000000	          0.00000000	          0.00000000	          0.00000000	         -6.10012622	          0.00000000	          0.00000000	          0.00000000	          0.00000000	
          3.89600000	         10.49470097	        103.41232118	          3.16781468	          0.31869656	          0.00000000	          0.12361848	          0.00000000	          0.00000000	          0.00000000	          0.00000000	          0.00000000	          0.00000000	          0.00000000	         -5.78980732	          0.00000000	          0.00000000	          0.00000000	          0.00000000	
          3.89700000	          8.57911621	         97.40615091	          3.05576990	          0.32068546	          0.00000000	          0.12266836	          0.00000000	          0.00000000	          0.00000000	          0.00000000	          0.00000000	          0.00000000	          0.00000000	         -5.48428086	          0.00000000	          0.00000000	          0.00000000	          0.00000000	
          3.89800000	          6.74020362	         91.78528209	          2.95922172	          0.32268354	          0.00000000	          0.12151964	          0.00000000	          0.00000000	          0.00000000	          0.00000000	          0.00000000	          0.00000000	          0.00000000	         -5.18211127	          0.00000000	          0.00000000	          0.00000000	          0.00000000	
          3.89900000	          4.99097936	         86.54957001	          2.88339243	          0.32496700	          0.00000000	          0.12031875	          0.00000000	          0.00000000	          0.00000000	          0.00000000	          0.00000000	          0.00000000	          0.00000000	         -4.88231522	          0.00000000	          0.00000000	          0.00000000	          0.00000000	
          3.90000000	          3.32750999	         81.68109999	          2.83553151	          0.32764013	          0.00000000	          0.11924043	          0.00000000	          0.00000000	          0.00000000	          0.00000000	          0.00000000	          0.00000000	          0.00000000	         -4.58506563	          0.00000000	          0.00000000	          0.00000000	          0.00000000	
          3.90100000	          1.74067798	         77.16195729	          2.81525461	          0.33068541	          0.00000000	          0.11833728	          0.00000000	          0.00000000	          0.00000000	          0.00000000	          0.00000000	          0.00000000	          0.00000000	         -4.29286416	          0.00000000	          0.00000000	          0.00000000	          0.00000000	
          3.90200000	          0.22150725	         72.98300279	          2.81570561	          0.33407521	          0.00000000	          0.11753616	          0.00000000	          0.00000000	          0.00000000	          0.00000000	          0.00000000	          0.00000000	          0.00000000	         -4.01031125	          0.00000000	          0.00000000	          0.00000000	          0.00000000	
          3.90300000	         -1.23698481	         69.13035387	          2.83276491	          0.33775130	          0.00000000	          0.11669671	          0.00000000	          0.00000000	          0.00000000	          0.00000000	          0.00000000	          0.00000000	          0.00000000	         -3.74046445	          0.00000000	          0.00000000	          0.00000000	          0.00000000	
          3.90400000	         -2.63861786	         65.57851846	          2.86624722	          0.34151157	          0.00000000	          0.11563448	          0.00000000	          0.00000000	          0.00000000	          0.00000000	          0.00000000	          0.00000000	          0.00000000	         -3.48166305	          0.00000000	          0.00000000	          0.00000000	          0.00000000	
          3.90500000	         -3.98471869	         62.29759348	          2.91325290	          0.34507810	          0.00000000	          0.11422260	          0.00000000	          0.00000000	          0.00000000	          0.00000000	          0.00000000	          0.00000000	          0.00000000	         -3.23023125	          0.00000000	          0.00000000	          0.00000000	          0.00000000	
          3.90600000	         -5.27818321	         59.27751736	          2.96480380	          0.34845546	          0.00000000	          0.11257887	          0.00000000	          0.00000000	          0.00000000	          0.00000000	          0.00000000	          0.00000000	          0.00000000	         -2.98485404	          0.00000000	          0.00000000	          0.00000000	          0.00000000	
          3.90700000	         -6.52622484	         56.54026706	          3.00657176	          0.35210001	          0.00000000	          0.11106219	          0.00000000	          0.00000000	          0.00000000	          0.00000000	          0.00000000	          0.00000000	          0.00000000	         -2.74629393	          0.00000000	          0.00000000	          0.00000000	          0.00000000	
          3.90800000	         -7.73054406	         54.10322538	          3.02201949	          0.35653958	          0.00000000	          0.11003705	          0.00000000	          0.00000000	          0.00000000	          0.00000000	          0.00000000	          0.00000000	          0.00000000	         -2.51426404	          0.00000000	          0.00000000	          0.00000000	          0.00000000	
          3.90900000	         -8.87593992	         51.92531728	          2.99837581	          0.36175060	          0.00000000	          0.10960066	          0.00000000	          0.00000000	          0.00000000	          0.00000000	          0.00000000	          0.00000000	          0.00000000	         -2.28803788	          0.00000000	          0.00000000	          0.00000000	          0.00000000	
          3.91000000	         -9.94046336	         49.91341766	          2.92732261	          0.36694539	          0.00000000	          0.10944029	          0.00000000	          0.00000000	          0.00000000	          0.00000000	          0.00000000	          0.00000000	          0.00000000	         -2.07120554	          0.00000000	          0.00000000	          0.00000000	          0.00000000	
          3.91100000	        -10.91153010	         47.98525212	          2.79984324	          0.37114261	          0.00000000	          0.10905707	          0.00000000	          0.00000000	          0.00000000	          0.00000000	          0.00000000	          0.00000000	          0.00000000	         -1.87135999	          0.00000000	          0.00000000	          0.00000000	          0.00000000	
          3.91200000	        -11.78027782	         46.09334830	          2.60629441	          0.37400753	          0.00000000	          0.10819628	          0.00000000	          0.00000000	          0.00000000	          0.00000000	          0.00000000	          0.00000000	          0.00000000	         -1.69353022	          0.00000000	          0.00000000	          0.00000000	          0.00000000	
          3.91300000	        -12.52785413	         44.20239205	          2.34557086	          0.37611670	          0.00000000	          0.10698668	          0.00000000	          0.00000000	          0.00000000	          0.00000000	          0.00000000	          0.00000000	          0.00000000	         -1.53812865	          0.00000000	          0.00000000	          0.00000000	          0.00000000	
